<?xml version="1.0" standalone="no"?>
<!DOCTYPE svg PUBLIC "-//W3C//DTD SVG 20010904//EN"
 "http://www.w3.org/TR/2001/REC-SVG-20010904/DTD/svg10.dtd">
<svg version="1.0" xmlns="http://www.w3.org/2000/svg"
 width="48.000000pt" height="48.000000pt" viewBox="0 0 48.000000 48.000000"
 preserveAspectRatio="xMidYMid meet">

<g transform="translate(0.000000,48.000000) scale(0.100000,-0.100000)"
fill="#000000" stroke="none">
<path d="M270 441 c0 -6 -7 -11 -15 -11 -8 0 -15 -7 -15 -15 0 -8 -6 -15 -14
-15 -16 0 -27 -30 -30 -83 -1 -29 4 -44 21 -60 12 -12 23 -27 23 -34 0 -7 7
-10 15 -7 8 4 15 1 15 -6 0 -7 7 -10 16 -6 12 5 15 -1 12 -27 -4 -43 -40 -50
-69 -13 -13 17 -34 28 -60 32 -21 4 -39 10 -39 15 0 15 -30 10 -36 -5 -3 -8
-16 -17 -30 -20 -29 -8 -32 -32 -4 -39 27 -7 27 -47 0 -47 -13 0 -20 -7 -20
-20 0 -12 7 -20 16 -20 9 0 23 -8 30 -17 10 -15 16 -16 32 -6 11 6 38 17 61
23 22 6 45 20 51 30 7 14 21 20 45 20 36 0 65 28 65 63 0 20 22 47 39 47 6 0
11 5 11 10 0 6 6 10 14 10 25 0 38 109 15 136 -5 6 -6 14 -2 17 3 4 -1 7 -10
7 -10 0 -17 7 -17 16 0 8 -5 12 -11 8 -6 -3 -15 -1 -19 7 -10 15 -48 20 -56 7
-3 -5 -12 -4 -20 3 -10 8 -14 8 -14 0z m80 -23 c0 -4 6 -8 13 -8 27 0 59 -47
59 -85 0 -101 -122 -144 -188 -68 -30 35 -31 85 -2 126 12 18 26 35 31 38 13
9 87 7 87 -3z m-222 -288 c3 -70 -7 -98 -30 -84 -9 6 -11 125 -2 149 14 36 29
5 32 -65z m85 33 c36 -33 8 -93 -45 -93 -28 0 -28 1 -28 61 l0 61 28 -7 c15
-3 35 -14 45 -22z m97 -29 c-7 -7 -24 -13 -39 -13 -25 1 -25 2 4 8 24 5 31 12
34 36 4 26 5 27 9 7 2 -13 -2 -30 -8 -38z m-233 30 c-3 -3 -12 -4 -19 -1 -8 3
-5 6 6 6 11 1 17 -2 13 -5z m3 -84 c0 -5 -7 -10 -15 -10 -8 0 -15 5 -15 10 0
6 7 10 15 10 8 0 15 -4 15 -10z"/>
<path d="M256 385 c-60 -56 -1 -169 79 -149 64 16 85 101 37 147 -36 35 -80
36 -116 2z m108 -10 c31 -29 33 -63 5 -99 -27 -34 -71 -35 -104 -1 -32 31 -32
69 0 100 31 32 65 32 99 0z"/>
</g>
</svg>
